<?xml version="1.0" encoding="UTF-8" standalone="no"?><svg xmlns="http://www.w3.org/2000/svg" xmlns:xlink="http://www.w3.org/1999/xlink" contentStyleType="text/css" height="576px" preserveAspectRatio="none" style="width:1828px;height:576px;background:#FFFFFF;" version="1.1" viewBox="0 0 1828 576" width="1828px" zoomAndPan="magnify"><defs/><g><!--MD5=[26f6a14347ce0f4659b595a34e882486]
class Mall--><g id="elem_Mall"><rect codeLine="5" fill="#F1F1F1" height="100.8281" id="Mall" rx="2.5" ry="2.5" style="stroke:#181818;stroke-width:0.5;" width="183" x="23.5" y="15.5"/><ellipse cx="98.25" cy="31.5" fill="#ADD1B2" rx="11" ry="11" style="stroke:#181818;stroke-width:1.0;"/><path d="M101.0156,27.375 Q101.1719,27.1563 101.3594,27.0469 Q101.5469,26.9375 101.7656,26.9375 Q102.1406,26.9375 102.375,27.2031 Q102.6094,27.4531 102.6094,28.0625 L102.6094,29.5156 Q102.6094,30.125 102.375,30.3906 Q102.1406,30.6563 101.7656,30.6563 Q101.4219,30.6563 101.2188,30.4531 Q101.0156,30.2656 100.9063,29.75 Q100.8594,29.3906 100.6719,29.2031 Q100.3438,28.8281 99.7344,28.6094 Q99.125,28.3906 98.5,28.3906 Q97.7344,28.3906 97.0938,28.7188 Q96.4688,29.0469 95.9688,29.7969 Q95.4844,30.5469 95.4844,31.5781 L95.4844,32.6719 Q95.4844,33.9063 96.375,34.7344 Q97.2656,35.5469 98.8594,35.5469 Q99.7969,35.5469 100.4531,35.2969 Q100.8438,35.1406 101.2656,34.7031 Q101.5313,34.4375 101.6719,34.3594 Q101.8281,34.2813 102.0313,34.2813 Q102.3594,34.2813 102.6094,34.5469 Q102.875,34.7969 102.875,35.1406 Q102.875,35.4844 102.5313,35.8906 Q102.0313,36.4688 101.2344,36.7969 Q100.1563,37.25 98.8594,37.25 Q97.3438,37.25 96.1406,36.625 Q95.1563,36.125 94.4688,35.0625 Q93.7813,33.9844 93.7813,32.7031 L93.7813,31.5469 Q93.7813,30.2188 94.3906,29.0781 Q95.0156,27.9219 96.1094,27.3125 Q97.2031,26.6875 98.4375,26.6875 Q99.1719,26.6875 99.8125,26.8594 Q100.4688,27.0156 101.0156,27.375 Z " fill="#000000"/><text fill="#000000" font-family="sans-serif" font-size="14" lengthAdjust="spacing" textLength="25" x="118.75" y="37.2285">Mall</text><line style="stroke:#181818;stroke-width:0.5;" x1="24.5" x2="205.5" y1="47.5" y2="47.5"/><ellipse cx="34.5" cy="61.8047" fill="none" rx="3" ry="3" style="stroke:#038048;stroke-width:1.0;"/><text fill="#000000" font-family="sans-serif" font-size="14" lengthAdjust="spacing" textLength="30" x="43.5" y="66.0332">Id:int</text><ellipse cx="34.5" cy="79.4141" fill="none" rx="3" ry="3" style="stroke:#038048;stroke-width:1.0;"/><text fill="#000000" font-family="sans-serif" font-size="14" lengthAdjust="spacing" textLength="93" x="43.5" y="83.6426">Location:string</text><line style="stroke:#181818;stroke-width:0.5;" x1="24.5" x2="205.5" y1="90.7188" y2="90.7188"/><ellipse cx="34.5" cy="105.0234" fill="#84BE84" rx="3" ry="3" style="stroke:#038048;stroke-width:1.0;"/><text fill="#000000" font-family="sans-serif" font-size="14" lengthAdjust="spacing" textLength="157" x="43.5" y="109.252">Mall(id:int,location:string)</text></g><!--MD5=[4dfc6a72b8dd60daa1b635d583ff79da]
class Map--><g id="elem_Map"><rect codeLine="11" fill="#F1F1F1" height="100.8281" id="Map" rx="2.5" ry="2.5" style="stroke:#181818;stroke-width:0.5;" width="351" x="241.5" y="15.5"/><ellipse cx="399.25" cy="31.5" fill="#ADD1B2" rx="11" ry="11" style="stroke:#181818;stroke-width:1.0;"/><path d="M402.0156,27.375 Q402.1719,27.1563 402.3594,27.0469 Q402.5469,26.9375 402.7656,26.9375 Q403.1406,26.9375 403.375,27.2031 Q403.6094,27.4531 403.6094,28.0625 L403.6094,29.5156 Q403.6094,30.125 403.375,30.3906 Q403.1406,30.6563 402.7656,30.6563 Q402.4219,30.6563 402.2188,30.4531 Q402.0156,30.2656 401.9063,29.75 Q401.8594,29.3906 401.6719,29.2031 Q401.3438,28.8281 400.7344,28.6094 Q400.125,28.3906 399.5,28.3906 Q398.7344,28.3906 398.0938,28.7188 Q397.4688,29.0469 396.9688,29.7969 Q396.4844,30.5469 396.4844,31.5781 L396.4844,32.6719 Q396.4844,33.9063 397.375,34.7344 Q398.2656,35.5469 399.8594,35.5469 Q400.7969,35.5469 401.4531,35.2969 Q401.8438,35.1406 402.2656,34.7031 Q402.5313,34.4375 402.6719,34.3594 Q402.8281,34.2813 403.0313,34.2813 Q403.3594,34.2813 403.6094,34.5469 Q403.875,34.7969 403.875,35.1406 Q403.875,35.4844 403.5313,35.8906 Q403.0313,36.4688 402.2344,36.7969 Q401.1563,37.25 399.8594,37.25 Q398.3438,37.25 397.1406,36.625 Q396.1563,36.125 395.4688,35.0625 Q394.7813,33.9844 394.7813,32.7031 L394.7813,31.5469 Q394.7813,30.2188 395.3906,29.0781 Q396.0156,27.9219 397.1094,27.3125 Q398.2031,26.6875 399.4375,26.6875 Q400.1719,26.6875 400.8125,26.8594 Q401.4688,27.0156 402.0156,27.375 Z " fill="#000000"/><text fill="#000000" font-family="sans-serif" font-size="14" lengthAdjust="spacing" textLength="27" x="419.75" y="37.2285">Map</text><line style="stroke:#181818;stroke-width:0.5;" x1="242.5" x2="591.5" y1="47.5" y2="47.5"/><ellipse cx="252.5" cy="61.8047" fill="none" rx="3" ry="3" style="stroke:#038048;stroke-width:1.0;"/><text fill="#000000" font-family="sans-serif" font-size="14" lengthAdjust="spacing" textLength="55" x="261.5" y="66.0332">Layer:int</text><ellipse cx="252.5" cy="79.4141" fill="none" rx="3" ry="3" style="stroke:#038048;stroke-width:1.0;"/><text fill="#000000" font-family="sans-serif" font-size="14" lengthAdjust="spacing" textLength="234" x="261.5" y="83.6426">components:Dictonary&lt;string,object&gt;</text><line style="stroke:#181818;stroke-width:0.5;" x1="242.5" x2="591.5" y1="90.7188" y2="90.7188"/><ellipse cx="252.5" cy="105.0234" fill="#84BE84" rx="3" ry="3" style="stroke:#038048;stroke-width:1.0;"/><text fill="#000000" font-family="sans-serif" font-size="14" lengthAdjust="spacing" textLength="325" x="261.5" y="109.252">Map(layer:int,components:Dictonary&lt;string,object&gt;)</text></g><!--MD5=[373bc1c388151141be97a34ce3ef19a0]
class MapV--><g id="elem_MapV"><rect codeLine="17" fill="#F1F1F1" height="118.4375" id="MapV" rx="2.5" ry="2.5" style="stroke:#181818;stroke-width:0.5;" width="430" x="961" y="7"/><ellipse cx="1153.75" cy="23" fill="#ADD1B2" rx="11" ry="11" style="stroke:#181818;stroke-width:1.0;"/><path d="M1156.5156,18.875 Q1156.6719,18.6563 1156.8594,18.5469 Q1157.0469,18.4375 1157.2656,18.4375 Q1157.6406,18.4375 1157.875,18.7031 Q1158.1094,18.9531 1158.1094,19.5625 L1158.1094,21.0156 Q1158.1094,21.625 1157.875,21.8906 Q1157.6406,22.1563 1157.2656,22.1563 Q1156.9219,22.1563 1156.7188,21.9531 Q1156.5156,21.7656 1156.4063,21.25 Q1156.3594,20.8906 1156.1719,20.7031 Q1155.8438,20.3281 1155.2344,20.1094 Q1154.625,19.8906 1154,19.8906 Q1153.2344,19.8906 1152.5938,20.2188 Q1151.9688,20.5469 1151.4688,21.2969 Q1150.9844,22.0469 1150.9844,23.0781 L1150.9844,24.1719 Q1150.9844,25.4063 1151.875,26.2344 Q1152.7656,27.0469 1154.3594,27.0469 Q1155.2969,27.0469 1155.9531,26.7969 Q1156.3438,26.6406 1156.7656,26.2031 Q1157.0313,25.9375 1157.1719,25.8594 Q1157.3281,25.7813 1157.5313,25.7813 Q1157.8594,25.7813 1158.1094,26.0469 Q1158.375,26.2969 1158.375,26.6406 Q1158.375,26.9844 1158.0313,27.3906 Q1157.5313,27.9688 1156.7344,28.2969 Q1155.6563,28.75 1154.3594,28.75 Q1152.8438,28.75 1151.6406,28.125 Q1150.6563,27.625 1149.9688,26.5625 Q1149.2813,25.4844 1149.2813,24.2031 L1149.2813,23.0469 Q1149.2813,21.7188 1149.8906,20.5781 Q1150.5156,19.4219 1151.6094,18.8125 Q1152.7031,18.1875 1153.9375,18.1875 Q1154.6719,18.1875 1155.3125,18.3594 Q1155.9688,18.5156 1156.5156,18.875 Z " fill="#000000"/><text fill="#000000" font-family="sans-serif" font-size="14" lengthAdjust="spacing" textLength="36" x="1174.25" y="28.7285">MapV</text><line style="stroke:#181818;stroke-width:0.5;" x1="962" x2="1390" y1="39" y2="39"/><ellipse cx="972" cy="53.3047" fill="none" rx="3" ry="3" style="stroke:#038048;stroke-width:1.0;"/><text fill="#000000" font-family="sans-serif" font-size="14" lengthAdjust="spacing" textLength="57" x="981" y="57.5332">MallID:int</text><ellipse cx="972" cy="70.9141" fill="none" rx="3" ry="3" style="stroke:#038048;stroke-width:1.0;"/><text fill="#000000" font-family="sans-serif" font-size="14" lengthAdjust="spacing" textLength="55" x="981" y="75.1426">Layer:int</text><ellipse cx="972" cy="88.5234" fill="none" rx="3" ry="3" style="stroke:#038048;stroke-width:1.0;"/><text fill="#000000" font-family="sans-serif" font-size="14" lengthAdjust="spacing" textLength="248" x="981" y="92.752">Components:IEnumable&lt;ComponentV&gt;</text><line style="stroke:#181818;stroke-width:0.5;" x1="962" x2="1390" y1="99.8281" y2="99.8281"/><ellipse cx="972" cy="114.1328" fill="#84BE84" rx="3" ry="3" style="stroke:#038048;stroke-width:1.0;"/><text fill="#000000" font-family="sans-serif" font-size="14" lengthAdjust="spacing" textLength="404" x="981" y="118.3613">MapV(mallid:int,layer:int,components:IEnumable&lt;ComponentV&gt;)</text></g><!--MD5=[1047d1e2254b59651b844fa3aaaf06d8]
class ComponentV--><g id="elem_ComponentV"><rect codeLine="24" fill="#F1F1F1" height="118.4375" id="ComponentV" rx="2.5" ry="2.5" style="stroke:#181818;stroke-width:0.5;" width="412" x="970" y="185"/><ellipse cx="1130.75" cy="201" fill="#ADD1B2" rx="11" ry="11" style="stroke:#181818;stroke-width:1.0;"/><path d="M1133.5156,196.875 Q1133.6719,196.6563 1133.8594,196.5469 Q1134.0469,196.4375 1134.2656,196.4375 Q1134.6406,196.4375 1134.875,196.7031 Q1135.1094,196.9531 1135.1094,197.5625 L1135.1094,199.0156 Q1135.1094,199.625 1134.875,199.8906 Q1134.6406,200.1563 1134.2656,200.1563 Q1133.9219,200.1563 1133.7188,199.9531 Q1133.5156,199.7656 1133.4063,199.25 Q1133.3594,198.8906 1133.1719,198.7031 Q1132.8438,198.3281 1132.2344,198.1094 Q1131.625,197.8906 1131,197.8906 Q1130.2344,197.8906 1129.5938,198.2188 Q1128.9688,198.5469 1128.4688,199.2969 Q1127.9844,200.0469 1127.9844,201.0781 L1127.9844,202.1719 Q1127.9844,203.4063 1128.875,204.2344 Q1129.7656,205.0469 1131.3594,205.0469 Q1132.2969,205.0469 1132.9531,204.7969 Q1133.3438,204.6406 1133.7656,204.2031 Q1134.0313,203.9375 1134.1719,203.8594 Q1134.3281,203.7813 1134.5313,203.7813 Q1134.8594,203.7813 1135.1094,204.0469 Q1135.375,204.2969 1135.375,204.6406 Q1135.375,204.9844 1135.0313,205.3906 Q1134.5313,205.9688 1133.7344,206.2969 Q1132.6563,206.75 1131.3594,206.75 Q1129.8438,206.75 1128.6406,206.125 Q1127.6563,205.625 1126.9688,204.5625 Q1126.2813,203.4844 1126.2813,202.2031 L1126.2813,201.0469 Q1126.2813,199.7188 1126.8906,198.5781 Q1127.5156,197.4219 1128.6094,196.8125 Q1129.7031,196.1875 1130.9375,196.1875 Q1131.6719,196.1875 1132.3125,196.3594 Q1132.9688,196.5156 1133.5156,196.875 Z " fill="#000000"/><text fill="#000000" font-family="sans-serif" font-size="14" lengthAdjust="spacing" textLength="82" x="1151.25" y="206.7285">ComponentV</text><line style="stroke:#181818;stroke-width:0.5;" x1="971" x2="1381" y1="217" y2="217"/><ellipse cx="981" cy="231.3047" fill="none" rx="3" ry="3" style="stroke:#038048;stroke-width:1.0;"/><text fill="#000000" font-family="sans-serif" font-size="14" lengthAdjust="spacing" textLength="110" x="990" y="235.5332">Description:string</text><ellipse cx="981" cy="248.9141" fill="none" rx="3" ry="3" style="stroke:#038048;stroke-width:1.0;"/><text fill="#000000" font-family="sans-serif" font-size="14" lengthAdjust="spacing" textLength="60" x="990" y="253.1426">ZIndex:int</text><ellipse cx="981" cy="266.5234" fill="none" rx="3" ry="3" style="stroke:#038048;stroke-width:1.0;"/><text fill="#000000" font-family="sans-serif" font-size="14" lengthAdjust="spacing" textLength="123" x="990" y="270.752">Geodata:GeodataV</text><line style="stroke:#181818;stroke-width:0.5;" x1="971" x2="1381" y1="277.8281" y2="277.8281"/><ellipse cx="981" cy="292.1328" fill="#84BE84" rx="3" ry="3" style="stroke:#038048;stroke-width:1.0;"/><text fill="#000000" font-family="sans-serif" font-size="14" lengthAdjust="spacing" textLength="386" x="990" y="296.3613">ComponentV(description:string,zindex:int,geodata:GeodataV)</text></g><!--MD5=[b1b824b4379335b6f56a29b9dc6e3e79]
class GeodataV--><g id="elem_GeodataV"><rect codeLine="33" fill="#F1F1F1" height="136.0469" id="GeodataV" rx="2.5" ry="2.5" style="stroke:#181818;stroke-width:0.5;" width="349" x="1001.5" y="398"/><ellipse cx="1139.75" cy="414" fill="#ADD1B2" rx="11" ry="11" style="stroke:#181818;stroke-width:1.0;"/><path d="M1142.5156,409.875 Q1142.6719,409.6563 1142.8594,409.5469 Q1143.0469,409.4375 1143.2656,409.4375 Q1143.6406,409.4375 1143.875,409.7031 Q1144.1094,409.9531 1144.1094,410.5625 L1144.1094,412.0156 Q1144.1094,412.625 1143.875,412.8906 Q1143.6406,413.1563 1143.2656,413.1563 Q1142.9219,413.1563 1142.7188,412.9531 Q1142.5156,412.7656 1142.4063,412.25 Q1142.3594,411.8906 1142.1719,411.7031 Q1141.8438,411.3281 1141.2344,411.1094 Q1140.625,410.8906 1140,410.8906 Q1139.2344,410.8906 1138.5938,411.2188 Q1137.9688,411.5469 1137.4688,412.2969 Q1136.9844,413.0469 1136.9844,414.0781 L1136.9844,415.1719 Q1136.9844,416.4063 1137.875,417.2344 Q1138.7656,418.0469 1140.3594,418.0469 Q1141.2969,418.0469 1141.9531,417.7969 Q1142.3438,417.6406 1142.7656,417.2031 Q1143.0313,416.9375 1143.1719,416.8594 Q1143.3281,416.7813 1143.5313,416.7813 Q1143.8594,416.7813 1144.1094,417.0469 Q1144.375,417.2969 1144.375,417.6406 Q1144.375,417.9844 1144.0313,418.3906 Q1143.5313,418.9688 1142.7344,419.2969 Q1141.6563,419.75 1140.3594,419.75 Q1138.8438,419.75 1137.6406,419.125 Q1136.6563,418.625 1135.9688,417.5625 Q1135.2813,416.4844 1135.2813,415.2031 L1135.2813,414.0469 Q1135.2813,412.7188 1135.8906,411.5781 Q1136.5156,410.4219 1137.6094,409.8125 Q1138.7031,409.1875 1139.9375,409.1875 Q1140.6719,409.1875 1141.3125,409.3594 Q1141.9688,409.5156 1142.5156,409.875 Z " fill="#000000"/><text fill="#000000" font-family="sans-serif" font-size="14" lengthAdjust="spacing" textLength="64" x="1160.25" y="419.7285">GeodataV</text><line style="stroke:#181818;stroke-width:0.5;" x1="1002.5" x2="1349.5" y1="430" y2="430"/><ellipse cx="1012.5" cy="444.3047" fill="none" rx="3" ry="3" style="stroke:#038048;stroke-width:1.0;"/><text fill="#000000" font-family="sans-serif" font-size="14" lengthAdjust="spacing" textLength="71" x="1021.5" y="448.5332">Type:string</text><ellipse cx="1012.5" cy="461.9141" fill="none" rx="3" ry="3" style="stroke:#038048;stroke-width:1.0;"/><text fill="#000000" font-family="sans-serif" font-size="14" lengthAdjust="spacing" textLength="66" x="1021.5" y="466.1426">XInput:int[]</text><ellipse cx="1012.5" cy="479.5234" fill="none" rx="3" ry="3" style="stroke:#038048;stroke-width:1.0;"/><text fill="#000000" font-family="sans-serif" font-size="14" lengthAdjust="spacing" textLength="67" x="1021.5" y="483.752">YInput:int[]</text><ellipse cx="1012.5" cy="497.1328" fill="none" rx="3" ry="3" style="stroke:#038048;stroke-width:1.0;"/><text fill="#000000" font-family="sans-serif" font-size="14" lengthAdjust="spacing" textLength="64" x="1021.5" y="501.3613">Srid:string</text><line style="stroke:#181818;stroke-width:0.5;" x1="1002.5" x2="1349.5" y1="508.4375" y2="508.4375"/><ellipse cx="1012.5" cy="522.7422" fill="#84BE84" rx="3" ry="3" style="stroke:#038048;stroke-width:1.0;"/><text fill="#000000" font-family="sans-serif" font-size="14" lengthAdjust="spacing" textLength="323" x="1021.5" y="526.9707">GeodataV(type:string,xInput:int[],yInput:int[],srid:int)</text></g><!--MD5=[a6a5eabb8ddefd8828b6453a50523569]
class AppState--><g id="elem_AppState"><rect codeLine="42" fill="#F1F1F1" height="100.8281" id="AppState" rx="2.5" ry="2.5" style="stroke:#181818;stroke-width:0.5;" width="395" x="1426.5" y="15.5"/><ellipse cx="1590.75" cy="31.5" fill="#ADD1B2" rx="11" ry="11" style="stroke:#181818;stroke-width:1.0;"/><path d="M1593.5156,27.375 Q1593.6719,27.1563 1593.8594,27.0469 Q1594.0469,26.9375 1594.2656,26.9375 Q1594.6406,26.9375 1594.875,27.2031 Q1595.1094,27.4531 1595.1094,28.0625 L1595.1094,29.5156 Q1595.1094,30.125 1594.875,30.3906 Q1594.6406,30.6563 1594.2656,30.6563 Q1593.9219,30.6563 1593.7188,30.4531 Q1593.5156,30.2656 1593.4063,29.75 Q1593.3594,29.3906 1593.1719,29.2031 Q1592.8438,28.8281 1592.2344,28.6094 Q1591.625,28.3906 1591,28.3906 Q1590.2344,28.3906 1589.5938,28.7188 Q1588.9688,29.0469 1588.4688,29.7969 Q1587.9844,30.5469 1587.9844,31.5781 L1587.9844,32.6719 Q1587.9844,33.9063 1588.875,34.7344 Q1589.7656,35.5469 1591.3594,35.5469 Q1592.2969,35.5469 1592.9531,35.2969 Q1593.3438,35.1406 1593.7656,34.7031 Q1594.0313,34.4375 1594.1719,34.3594 Q1594.3281,34.2813 1594.5313,34.2813 Q1594.8594,34.2813 1595.1094,34.5469 Q1595.375,34.7969 1595.375,35.1406 Q1595.375,35.4844 1595.0313,35.8906 Q1594.5313,36.4688 1593.7344,36.7969 Q1592.6563,37.25 1591.3594,37.25 Q1589.8438,37.25 1588.6406,36.625 Q1587.6563,36.125 1586.9688,35.0625 Q1586.2813,33.9844 1586.2813,32.7031 L1586.2813,31.5469 Q1586.2813,30.2188 1586.8906,29.0781 Q1587.5156,27.9219 1588.6094,27.3125 Q1589.7031,26.6875 1590.9375,26.6875 Q1591.6719,26.6875 1592.3125,26.8594 Q1592.9688,27.0156 1593.5156,27.375 Z " fill="#000000"/><text fill="#000000" font-family="sans-serif" font-size="14" lengthAdjust="spacing" textLength="58" x="1611.25" y="37.2285">AppState</text><line style="stroke:#181818;stroke-width:0.5;" x1="1427.5" x2="1820.5" y1="47.5" y2="47.5"/><ellipse cx="1437.5" cy="61.8047" fill="none" rx="3" ry="3" style="stroke:#038048;stroke-width:1.0;"/><text fill="#000000" font-family="sans-serif" font-size="14" lengthAdjust="spacing" textLength="198" x="1446.5" y="66.0332">Credentials:SessionCredentials</text><ellipse cx="1437.5" cy="79.4141" fill="none" rx="3" ry="3" style="stroke:#038048;stroke-width:1.0;"/><text fill="#000000" font-family="sans-serif" font-size="14" lengthAdjust="spacing" textLength="103" x="1446.5" y="83.6426">Username:string</text><line style="stroke:#181818;stroke-width:0.5;" x1="1427.5" x2="1820.5" y1="90.7188" y2="90.7188"/><ellipse cx="1437.5" cy="105.0234" fill="#84BE84" rx="3" ry="3" style="stroke:#038048;stroke-width:1.0;"/><text fill="#000000" font-family="sans-serif" font-size="14" lengthAdjust="spacing" textLength="369" x="1446.5" y="109.252">AppState(credentials:SessionCredentials,username:string)</text></g><!--MD5=[223ffb686bff83c7716f14b7ed7efffc]
class SessionCredentials--><g id="elem_SessionCredentials"><rect codeLine="49" fill="#F1F1F1" height="118.4375" id="SessionCredentials" rx="2.5" ry="2.5" style="stroke:#181818;stroke-width:0.5;" width="391" x="1428.5" y="185"/><ellipse cx="1558.75" cy="201" fill="#ADD1B2" rx="11" ry="11" style="stroke:#181818;stroke-width:1.0;"/><path d="M1561.5156,196.875 Q1561.6719,196.6563 1561.8594,196.5469 Q1562.0469,196.4375 1562.2656,196.4375 Q1562.6406,196.4375 1562.875,196.7031 Q1563.1094,196.9531 1563.1094,197.5625 L1563.1094,199.0156 Q1563.1094,199.625 1562.875,199.8906 Q1562.6406,200.1563 1562.2656,200.1563 Q1561.9219,200.1563 1561.7188,199.9531 Q1561.5156,199.7656 1561.4063,199.25 Q1561.3594,198.8906 1561.1719,198.7031 Q1560.8438,198.3281 1560.2344,198.1094 Q1559.625,197.8906 1559,197.8906 Q1558.2344,197.8906 1557.5938,198.2188 Q1556.9688,198.5469 1556.4688,199.2969 Q1555.9844,200.0469 1555.9844,201.0781 L1555.9844,202.1719 Q1555.9844,203.4063 1556.875,204.2344 Q1557.7656,205.0469 1559.3594,205.0469 Q1560.2969,205.0469 1560.9531,204.7969 Q1561.3438,204.6406 1561.7656,204.2031 Q1562.0313,203.9375 1562.1719,203.8594 Q1562.3281,203.7813 1562.5313,203.7813 Q1562.8594,203.7813 1563.1094,204.0469 Q1563.375,204.2969 1563.375,204.6406 Q1563.375,204.9844 1563.0313,205.3906 Q1562.5313,205.9688 1561.7344,206.2969 Q1560.6563,206.75 1559.3594,206.75 Q1557.8438,206.75 1556.6406,206.125 Q1555.6563,205.625 1554.9688,204.5625 Q1554.2813,203.4844 1554.2813,202.2031 L1554.2813,201.0469 Q1554.2813,199.7188 1554.8906,198.5781 Q1555.5156,197.4219 1556.6094,196.8125 Q1557.7031,196.1875 1558.9375,196.1875 Q1559.6719,196.1875 1560.3125,196.3594 Q1560.9688,196.5156 1561.5156,196.875 Z " fill="#000000"/><text fill="#000000" font-family="sans-serif" font-size="14" lengthAdjust="spacing" textLength="122" x="1579.25" y="206.7285">SessionCredentials</text><line style="stroke:#181818;stroke-width:0.5;" x1="1429.5" x2="1818.5" y1="217" y2="217"/><ellipse cx="1439.5" cy="231.3047" fill="none" rx="3" ry="3" style="stroke:#038048;stroke-width:1.0;"/><text fill="#000000" font-family="sans-serif" font-size="14" lengthAdjust="spacing" textLength="68" x="1448.5" y="235.5332">Role:string</text><ellipse cx="1439.5" cy="248.9141" fill="none" rx="3" ry="3" style="stroke:#038048;stroke-width:1.0;"/><text fill="#000000" font-family="sans-serif" font-size="14" lengthAdjust="spacing" textLength="113" x="1448.5" y="253.1426">SessionKey:string</text><ellipse cx="1439.5" cy="266.5234" fill="none" rx="3" ry="3" style="stroke:#038048;stroke-width:1.0;"/><text fill="#000000" font-family="sans-serif" font-size="14" lengthAdjust="spacing" textLength="60" x="1448.5" y="270.752">FirmID:int</text><line style="stroke:#181818;stroke-width:0.5;" x1="1429.5" x2="1818.5" y1="277.8281" y2="277.8281"/><ellipse cx="1439.5" cy="292.1328" fill="#84BE84" rx="3" ry="3" style="stroke:#038048;stroke-width:1.0;"/><text fill="#000000" font-family="sans-serif" font-size="14" lengthAdjust="spacing" textLength="365" x="1448.5" y="296.3613">SessionCredentials(role:string,sessionkey:string,firmid:int)</text></g><!--MD5=[e01ef6c0f5938bf4963fb4b3d8832368]
class FirmUser--><g id="elem_FirmUser"><rect codeLine="57" fill="#F1F1F1" height="100.8281" id="FirmUser" rx="2.5" ry="2.5" style="stroke:#181818;stroke-width:0.5;" width="298" x="628" y="15.5"/><ellipse cx="744.25" cy="31.5" fill="#ADD1B2" rx="11" ry="11" style="stroke:#181818;stroke-width:1.0;"/><path d="M747.0156,27.375 Q747.1719,27.1563 747.3594,27.0469 Q747.5469,26.9375 747.7656,26.9375 Q748.1406,26.9375 748.375,27.2031 Q748.6094,27.4531 748.6094,28.0625 L748.6094,29.5156 Q748.6094,30.125 748.375,30.3906 Q748.1406,30.6563 747.7656,30.6563 Q747.4219,30.6563 747.2188,30.4531 Q747.0156,30.2656 746.9063,29.75 Q746.8594,29.3906 746.6719,29.2031 Q746.3438,28.8281 745.7344,28.6094 Q745.125,28.3906 744.5,28.3906 Q743.7344,28.3906 743.0938,28.7188 Q742.4688,29.0469 741.9688,29.7969 Q741.4844,30.5469 741.4844,31.5781 L741.4844,32.6719 Q741.4844,33.9063 742.375,34.7344 Q743.2656,35.5469 744.8594,35.5469 Q745.7969,35.5469 746.4531,35.2969 Q746.8438,35.1406 747.2656,34.7031 Q747.5313,34.4375 747.6719,34.3594 Q747.8281,34.2813 748.0313,34.2813 Q748.3594,34.2813 748.6094,34.5469 Q748.875,34.7969 748.875,35.1406 Q748.875,35.4844 748.5313,35.8906 Q748.0313,36.4688 747.2344,36.7969 Q746.1563,37.25 744.8594,37.25 Q743.3438,37.25 742.1406,36.625 Q741.1563,36.125 740.4688,35.0625 Q739.7813,33.9844 739.7813,32.7031 L739.7813,31.5469 Q739.7813,30.2188 740.3906,29.0781 Q741.0156,27.9219 742.1094,27.3125 Q743.2031,26.6875 744.4375,26.6875 Q745.1719,26.6875 745.8125,26.8594 Q746.4688,27.0156 747.0156,27.375 Z " fill="#000000"/><text fill="#000000" font-family="sans-serif" font-size="14" lengthAdjust="spacing" textLength="57" x="764.75" y="37.2285">FirmUser</text><line style="stroke:#181818;stroke-width:0.5;" x1="629" x2="925" y1="47.5" y2="47.5"/><ellipse cx="639" cy="61.8047" fill="none" rx="3" ry="3" style="stroke:#038048;stroke-width:1.0;"/><text fill="#000000" font-family="sans-serif" font-size="14" lengthAdjust="spacing" textLength="100" x="648" y="66.0332">Password:string</text><ellipse cx="639" cy="79.4141" fill="none" rx="3" ry="3" style="stroke:#038048;stroke-width:1.0;"/><text fill="#000000" font-family="sans-serif" font-size="14" lengthAdjust="spacing" textLength="103" x="648" y="83.6426">Username:string</text><line style="stroke:#181818;stroke-width:0.5;" x1="629" x2="925" y1="90.7188" y2="90.7188"/><ellipse cx="639" cy="105.0234" fill="#84BE84" rx="3" ry="3" style="stroke:#038048;stroke-width:1.0;"/><text fill="#000000" font-family="sans-serif" font-size="14" lengthAdjust="spacing" textLength="272" x="648" y="109.252">FirmUser(username:string,password:string)</text></g><!--MD5=[5655ee3e2a0d028d03fe20f829576392]
class Square--><g id="elem_Square"><rect codeLine="64" fill="#F1F1F1" height="100.8281" id="Square" rx="2.5" ry="2.5" style="stroke:#181818;stroke-width:0.5;" width="216" x="7" y="193.5"/><ellipse cx="87.75" cy="209.5" fill="#ADD1B2" rx="11" ry="11" style="stroke:#181818;stroke-width:1.0;"/><path d="M90.5156,205.375 Q90.6719,205.1563 90.8594,205.0469 Q91.0469,204.9375 91.2656,204.9375 Q91.6406,204.9375 91.875,205.2031 Q92.1094,205.4531 92.1094,206.0625 L92.1094,207.5156 Q92.1094,208.125 91.875,208.3906 Q91.6406,208.6563 91.2656,208.6563 Q90.9219,208.6563 90.7188,208.4531 Q90.5156,208.2656 90.4063,207.75 Q90.3594,207.3906 90.1719,207.2031 Q89.8438,206.8281 89.2344,206.6094 Q88.625,206.3906 88,206.3906 Q87.2344,206.3906 86.5938,206.7188 Q85.9688,207.0469 85.4688,207.7969 Q84.9844,208.5469 84.9844,209.5781 L84.9844,210.6719 Q84.9844,211.9063 85.875,212.7344 Q86.7656,213.5469 88.3594,213.5469 Q89.2969,213.5469 89.9531,213.2969 Q90.3438,213.1406 90.7656,212.7031 Q91.0313,212.4375 91.1719,212.3594 Q91.3281,212.2813 91.5313,212.2813 Q91.8594,212.2813 92.1094,212.5469 Q92.375,212.7969 92.375,213.1406 Q92.375,213.4844 92.0313,213.8906 Q91.5313,214.4688 90.7344,214.7969 Q89.6563,215.25 88.3594,215.25 Q86.8438,215.25 85.6406,214.625 Q84.6563,214.125 83.9688,213.0625 Q83.2813,211.9844 83.2813,210.7031 L83.2813,209.5469 Q83.2813,208.2188 83.8906,207.0781 Q84.5156,205.9219 85.6094,205.3125 Q86.7031,204.6875 87.9375,204.6875 Q88.6719,204.6875 89.3125,204.8594 Q89.9688,205.0156 90.5156,205.375 Z " fill="#000000"/><text fill="#000000" font-family="sans-serif" font-size="14" lengthAdjust="spacing" textLength="46" x="108.25" y="215.2285">Square</text><line style="stroke:#181818;stroke-width:0.5;" x1="8" x2="222" y1="225.5" y2="225.5"/><ellipse cx="18" cy="239.8047" fill="none" rx="3" ry="3" style="stroke:#038048;stroke-width:1.0;"/><text fill="#000000" font-family="sans-serif" font-size="14" lengthAdjust="spacing" textLength="106" x="27" y="244.0332">GetPoints:Point[]</text><line style="stroke:#181818;stroke-width:0.5;" x1="8" x2="222" y1="251.1094" y2="251.1094"/><ellipse cx="18" cy="265.4141" fill="#84BE84" rx="3" ry="3" style="stroke:#038048;stroke-width:1.0;"/><text fill="#000000" font-family="sans-serif" font-size="14" lengthAdjust="spacing" textLength="190" x="27" y="269.6426">Addpoint(newPoint:Point):bool</text><ellipse cx="18" cy="283.0234" fill="#84BE84" rx="3" ry="3" style="stroke:#038048;stroke-width:1.0;"/><text fill="#000000" font-family="sans-serif" font-size="14" lengthAdjust="spacing" textLength="56" x="27" y="287.252">Square()</text></g><!--MD5=[6b284f86cd528c589b391e3173fb3263]
class DrawTool--><g id="elem_DrawTool"><rect codeLine="70" fill="#F1F1F1" height="100.8281" id="DrawTool" rx="2.5" ry="2.5" style="stroke:#181818;stroke-width:0.5;" width="92" x="258" y="193.5"/><ellipse cx="273" cy="209.5" fill="#EB937F" rx="11" ry="11" style="stroke:#181818;stroke-width:1.0;"/><path d="M271.8594,210.2969 L271.8594,212.7969 L276.1875,212.7969 L276.1875,211.875 Q276.1875,211.2656 276.4219,211 Q276.6719,210.7344 277.0469,210.7344 Q277.4219,210.7344 277.6563,211 Q277.8906,211.2656 277.8906,211.875 L277.8906,214.5 L269.8906,214.5 Q269.2656,214.5 269,214.2656 Q268.75,214.0313 268.75,213.6406 Q268.75,213.2656 269.0156,213.0313 Q269.2813,212.7969 269.8906,212.7969 L270.1563,212.7969 L270.1563,206.1406 L269.8906,206.1406 Q269.2656,206.1406 269,205.9063 Q268.75,205.6719 268.75,205.2813 Q268.75,204.9063 269,204.6719 Q269.2656,204.4375 269.8906,204.4375 L277.5156,204.4375 L277.5156,207.0313 Q277.5156,207.6406 277.2813,207.9063 Q277.0625,208.1563 276.6719,208.1563 Q276.2969,208.1563 276.0625,207.9063 Q275.8281,207.6406 275.8281,207.0313 L275.8281,206.1406 L271.8594,206.1406 L271.8594,208.5938 L273.3438,208.5938 Q273.3438,207.9375 273.4688,207.75 Q273.7344,207.3438 274.2031,207.3438 Q274.5781,207.3438 274.8125,207.6094 Q275.0469,207.8594 275.0469,208.4688 L275.0469,210.4375 Q275.0469,210.9844 274.9219,211.1719 Q274.6563,211.5625 274.2031,211.5625 Q273.7344,211.5625 273.4688,211.1563 Q273.3438,210.9688 273.3438,210.2969 L271.8594,210.2969 Z " fill="#000000"/><text fill="#000000" font-family="sans-serif" font-size="14" lengthAdjust="spacing" textLength="60" x="287" y="215.2285">DrawTool</text><line style="stroke:#181818;stroke-width:0.5;" x1="259" x2="349" y1="225.5" y2="225.5"/><text fill="#000000" font-family="sans-serif" font-size="14" lengthAdjust="spacing" textLength="29" x="264" y="244.0332">LINE</text><text fill="#000000" font-family="sans-serif" font-size="14" lengthAdjust="spacing" textLength="57" x="264" y="261.6426">SQUARE</text><text fill="#000000" font-family="sans-serif" font-size="14" lengthAdjust="spacing" textLength="68" x="264" y="279.252">POLYGON</text><line style="stroke:#181818;stroke-width:0.5;" x1="259" x2="349" y1="286.3281" y2="286.3281"/></g><!--MD5=[d3ac03255145c013c38b3da33f7bd535]
class ISessionManager--><g id="elem_ISessionManager"><rect codeLine="78" fill="#F1F1F1" height="118.4375" id="ISessionManager" rx="2.5" ry="2.5" style="stroke:#181818;stroke-width:0.5;" width="232" x="385" y="185"/><ellipse cx="441.25" cy="201" fill="#B4A7E5" rx="11" ry="11" style="stroke:#181818;stroke-width:1.0;"/><path d="M442.2031,197.6406 L442.2031,204.2969 L443.9219,204.2969 Q444.5313,204.2969 444.7969,204.5313 Q445.0625,204.7656 445.0625,205.1563 Q445.0625,205.5313 444.7969,205.7656 Q444.5313,206 443.9219,206 L438.7813,206 Q438.1719,206 437.9063,205.7656 Q437.6406,205.5313 437.6406,205.1406 Q437.6406,204.7656 437.9063,204.5313 Q438.1719,204.2969 438.7813,204.2969 L440.5,204.2969 L440.5,197.6406 L438.7813,197.6406 Q438.1719,197.6406 437.9063,197.4063 Q437.6406,197.1719 437.6406,196.7813 Q437.6406,196.4063 437.9063,196.1719 Q438.1719,195.9375 438.7813,195.9375 L443.9219,195.9375 Q444.5313,195.9375 444.7969,196.1719 Q445.0625,196.4063 445.0625,196.7813 Q445.0625,197.1719 444.7969,197.4063 Q444.5313,197.6406 443.9219,197.6406 L442.2031,197.6406 Z " fill="#000000"/><text fill="#000000" font-family="sans-serif" font-size="14" font-style="italic" lengthAdjust="spacing" textLength="111" x="461.75" y="206.7285">ISessionManager</text><line style="stroke:#181818;stroke-width:0.5;" x1="386" x2="616" y1="217" y2="217"/><ellipse cx="396" cy="231.3047" fill="none" rx="3" ry="3" style="stroke:#038048;stroke-width:1.0;"/><text fill="#000000" font-family="sans-serif" font-size="14" lengthAdjust="spacing" textLength="148" x="405" y="235.5332">Onchange Action:event</text><line style="stroke:#181818;stroke-width:0.5;" x1="386" x2="616" y1="242.6094" y2="242.6094"/><ellipse cx="396" cy="256.9141" fill="#84BE84" rx="3" ry="3" style="stroke:#038048;stroke-width:1.0;"/><text fill="#000000" font-family="sans-serif" font-size="14" lengthAdjust="spacing" textLength="206" x="405" y="261.1426">GetStringValue(key:string):string</text><ellipse cx="396" cy="274.5234" fill="#84BE84" rx="3" ry="3" style="stroke:#038048;stroke-width:1.0;"/><text fill="#000000" font-family="sans-serif" font-size="14" lengthAdjust="spacing" textLength="137" x="405" y="278.752">GetKey(key:string):int</text><ellipse cx="396" cy="292.1328" fill="#84BE84" rx="3" ry="3" style="stroke:#038048;stroke-width:1.0;"/><text fill="#000000" font-family="sans-serif" font-size="14" lengthAdjust="spacing" textLength="204" x="405" y="296.3613">SetMall(key:int,value:string):void</text></g><!--MD5=[e0ac8d0730446c1896f2b1a39099c971]
class DataHelper--><g id="elem_DataHelper"><rect codeLine="86" fill="#F1F1F1" height="65.6094" id="DataHelper" rx="2.5" ry="2.5" style="stroke:#181818;stroke-width:0.5;" width="211" x="9.5" y="433"/><ellipse cx="75.25" cy="449" fill="#ADD1B2" rx="11" ry="11" style="stroke:#181818;stroke-width:1.0;"/><path d="M78.0156,444.875 Q78.1719,444.6563 78.3594,444.5469 Q78.5469,444.4375 78.7656,444.4375 Q79.1406,444.4375 79.375,444.7031 Q79.6094,444.9531 79.6094,445.5625 L79.6094,447.0156 Q79.6094,447.625 79.375,447.8906 Q79.1406,448.1563 78.7656,448.1563 Q78.4219,448.1563 78.2188,447.9531 Q78.0156,447.7656 77.9063,447.25 Q77.8594,446.8906 77.6719,446.7031 Q77.3438,446.3281 76.7344,446.1094 Q76.125,445.8906 75.5,445.8906 Q74.7344,445.8906 74.0938,446.2188 Q73.4688,446.5469 72.9688,447.2969 Q72.4844,448.0469 72.4844,449.0781 L72.4844,450.1719 Q72.4844,451.4063 73.375,452.2344 Q74.2656,453.0469 75.8594,453.0469 Q76.7969,453.0469 77.4531,452.7969 Q77.8438,452.6406 78.2656,452.2031 Q78.5313,451.9375 78.6719,451.8594 Q78.8281,451.7813 79.0313,451.7813 Q79.3594,451.7813 79.6094,452.0469 Q79.875,452.2969 79.875,452.6406 Q79.875,452.9844 79.5313,453.3906 Q79.0313,453.9688 78.2344,454.2969 Q77.1563,454.75 75.8594,454.75 Q74.3438,454.75 73.1406,454.125 Q72.1563,453.625 71.4688,452.5625 Q70.7813,451.4844 70.7813,450.2031 L70.7813,449.0469 Q70.7813,447.7188 71.3906,446.5781 Q72.0156,445.4219 73.1094,444.8125 Q74.2031,444.1875 75.4375,444.1875 Q76.1719,444.1875 76.8125,444.3594 Q77.4688,444.5156 78.0156,444.875 Z " fill="#000000"/><text fill="#000000" font-family="sans-serif" font-size="14" lengthAdjust="spacing" textLength="71" x="95.75" y="454.7285">DataHelper</text><line style="stroke:#181818;stroke-width:0.5;" x1="10.5" x2="219.5" y1="465" y2="465"/><line style="stroke:#181818;stroke-width:0.5;" x1="10.5" x2="219.5" y1="473" y2="473"/><ellipse cx="20.5" cy="487.3047" fill="#84BE84" rx="3" ry="3" style="stroke:#038048;stroke-width:1.0;"/><text fill="#000000" font-family="sans-serif" font-size="14" lengthAdjust="spacing" textLength="185" x="29.5" y="491.5332">ToSha256(input:string):string</text></g><!--MD5=[dd5180f7fa3b71c9fd36b7991e101be6]
class RestCaller--><g id="elem_RestCaller"><rect codeLine="90" fill="#F1F1F1" height="206.4844" id="RestCaller" rx="2.5" ry="2.5" style="stroke:#181818;stroke-width:0.5;" width="544" x="256" y="363"/><ellipse cx="490.75" cy="379" fill="#ADD1B2" rx="11" ry="11" style="stroke:#181818;stroke-width:1.0;"/><path d="M493.5156,374.875 Q493.6719,374.6563 493.8594,374.5469 Q494.0469,374.4375 494.2656,374.4375 Q494.6406,374.4375 494.875,374.7031 Q495.1094,374.9531 495.1094,375.5625 L495.1094,377.0156 Q495.1094,377.625 494.875,377.8906 Q494.6406,378.1563 494.2656,378.1563 Q493.9219,378.1563 493.7188,377.9531 Q493.5156,377.7656 493.4063,377.25 Q493.3594,376.8906 493.1719,376.7031 Q492.8438,376.3281 492.2344,376.1094 Q491.625,375.8906 491,375.8906 Q490.2344,375.8906 489.5938,376.2188 Q488.9688,376.5469 488.4688,377.2969 Q487.9844,378.0469 487.9844,379.0781 L487.9844,380.1719 Q487.9844,381.4063 488.875,382.2344 Q489.7656,383.0469 491.3594,383.0469 Q492.2969,383.0469 492.9531,382.7969 Q493.3438,382.6406 493.7656,382.2031 Q494.0313,381.9375 494.1719,381.8594 Q494.3281,381.7813 494.5313,381.7813 Q494.8594,381.7813 495.1094,382.0469 Q495.375,382.2969 495.375,382.6406 Q495.375,382.9844 495.0313,383.3906 Q494.5313,383.9688 493.7344,384.2969 Q492.6563,384.75 491.3594,384.75 Q489.8438,384.75 488.6406,384.125 Q487.6563,383.625 486.9688,382.5625 Q486.2813,381.4844 486.2813,380.2031 L486.2813,379.0469 Q486.2813,377.7188 486.8906,376.5781 Q487.5156,375.4219 488.6094,374.8125 Q489.7031,374.1875 490.9375,374.1875 Q491.6719,374.1875 492.3125,374.3594 Q492.9688,374.5156 493.5156,374.875 Z " fill="#000000"/><text fill="#000000" font-family="sans-serif" font-size="14" lengthAdjust="spacing" textLength="66" x="511.25" y="384.7285">RestCaller</text><line style="stroke:#181818;stroke-width:0.5;" x1="257" x2="799" y1="395" y2="395"/><rect fill="none" height="6" style="stroke:#C82930;stroke-width:1.0;" width="6" x="264" y="406.3047"/><text fill="#000000" font-family="sans-serif" font-size="14" lengthAdjust="spacing" textLength="80" x="276" y="413.5332">apikey:string</text><rect fill="none" height="6" style="stroke:#C82930;stroke-width:1.0;" width="6" x="264" y="423.9141"/><text fill="#000000" font-family="sans-serif" font-size="14" lengthAdjust="spacing" textLength="87" x="276" y="431.1426">baseUri:string</text><rect fill="none" height="6" style="stroke:#C82930;stroke-width:1.0;" width="6" x="264" y="441.5234"/><text fill="#000000" font-family="sans-serif" font-size="14" lengthAdjust="spacing" textLength="98" x="276" y="448.752">client:HttpClient</text><line style="stroke:#181818;stroke-width:0.5;" x1="257" x2="799" y1="455.8281" y2="455.8281"/><ellipse cx="267" cy="470.1328" fill="#84BE84" rx="3" ry="3" style="stroke:#038048;stroke-width:1.0;"/><text fill="#000000" font-family="sans-serif" font-size="14" lengthAdjust="spacing" textLength="76" x="276" y="474.3613">RestCaller()</text><ellipse cx="267" cy="487.7422" fill="#84BE84" rx="3" ry="3" style="stroke:#038048;stroke-width:1.0;"/><text fill="#000000" font-family="sans-serif" font-size="14" lengthAdjust="spacing" textLength="230" x="276" y="491.9707">GetMalls(cvrnr:int):Task&lt;List&lt;Mall&gt;&gt;</text><ellipse cx="267" cy="505.3516" fill="#84BE84" rx="3" ry="3" style="stroke:#038048;stroke-width:1.0;"/><text fill="#000000" font-family="sans-serif" font-size="14" lengthAdjust="spacing" textLength="231" x="276" y="509.5801">GetMap(mallid:int):Task&lt;List&lt;Map&gt;&gt;</text><rect fill="#F24D5C" height="6" style="stroke:#C82930;stroke-width:1.0;" width="6" x="264" y="519.9609"/><text fill="#000000" font-family="sans-serif" font-size="14" lengthAdjust="spacing" textLength="474" x="276" y="527.1895">CreateaRequestMessage(uri:Uri,method:HttpMethod):HttpRequestMessage</text><ellipse cx="267" cy="540.5703" fill="#84BE84" rx="3" ry="3" style="stroke:#038048;stroke-width:1.0;"/><text fill="#000000" font-family="sans-serif" font-size="14" lengthAdjust="spacing" textLength="225" x="276" y="544.7988">InsertMap(map:MapV):Task&lt;string&gt;</text><ellipse cx="267" cy="558.1797" fill="#84BE84" rx="3" ry="3" style="stroke:#038048;stroke-width:1.0;"/><text fill="#000000" font-family="sans-serif" font-size="14" lengthAdjust="spacing" textLength="518" x="276" y="562.4082">GetLoginCredentiels(username:string,password:string):Task&lt;SessionCredentials&gt;</text></g><!--MD5=[a10329656f48439b485c7b5d3936eeab]
reverse link MapV to ComponentV--><g id="link_MapV_ComponentV"><path codeLine="30" d="M1176,138.27 C1176,138.27 1176,184.99 1176,184.99 " fill="none" id="MapV-backto-ComponentV" style="stroke:#181818;stroke-width:1.0;"/><polygon fill="none" points="1176,125.27,1172,131.27,1176,137.27,1180,131.27,1176,125.27" style="stroke:#181818;stroke-width:1.0;"/><text fill="#000000" font-family="sans-serif" font-size="13" lengthAdjust="spacing" textLength="7" x="1168.5734" y="146.9584">1</text><text fill="#000000" font-family="sans-serif" font-size="13" lengthAdjust="spacing" textLength="20" x="1154.7813" y="174.313">0..*</text></g><!--MD5=[3a37d61cf59bbab01c25fbf5af366ac6]
reverse link ComponentV to GeodataV--><g id="link_ComponentV_GeodataV"><path codeLine="40" d="M1176,316.2 C1176,316.2 1176,397.93 1176,397.93 " fill="none" id="ComponentV-backto-GeodataV" style="stroke:#181818;stroke-width:1.0;"/><polygon fill="none" points="1176,303.2,1172,309.2,1176,315.2,1180,309.2,1176,303.2" style="stroke:#181818;stroke-width:1.0;"/><text fill="#000000" font-family="sans-serif" font-size="13" lengthAdjust="spacing" textLength="7" x="1168.5734" y="324.8799">1</text><text fill="#000000" font-family="sans-serif" font-size="13" lengthAdjust="spacing" textLength="7" x="1168.6172" y="387.1216">1</text></g><!--MD5=[1c3d84fe0f51b90a02b6cea657b6004b]
reverse link AppState to SessionCredentials--><g id="link_AppState_SessionCredentials"><path codeLine="55" d="M1624,129.53 C1624,129.53 1624,184.84 1624,184.84 " fill="none" id="AppState-backto-SessionCredentials" style="stroke:#181818;stroke-width:1.0;"/><polygon fill="none" points="1624,116.53,1620,122.53,1624,128.53,1628,122.53,1624,116.53" style="stroke:#181818;stroke-width:1.0;"/><text fill="#000000" font-family="sans-serif" font-size="13" lengthAdjust="spacing" textLength="7" x="1616.5297" y="137.9253">1</text><text fill="#000000" font-family="sans-serif" font-size="13" lengthAdjust="spacing" textLength="7" x="1616.5734" y="174.1448">1</text></g><!--MD5=[5495767a0a3cc68dc83863aa76378909]
@startuml Website class diagram
top to bottom direction
skinparam linetype ortho

'Modles'
Class Mall{
+Mall(id:int,location:string)
+Id:int
+Location:string
}

Class Map{
+Map(layer:int,components:Dictonary<string,object>)
+Layer:int
+components:Dictonary<string,object>
}

Class MapV{
+MapV(mallid:int,layer:int,components:IEnumable<ComponentV>)
+MallID:int
+Layer:int
+Components:IEnumable<ComponentV>
}

Class ComponentV{
+ComponentV(description:string,zindex:int,geodata:GeodataV)
+Description:string
+ZIndex:int
+Geodata:GeodataV
}
MapV "1" o- - "0..*" ComponentV


Class GeodataV{
+GeodataV(type:string,xInput:int[],yInput:int[],srid:int)
+Type:string
+XInput:int[]
+YInput:int[]
+Srid:string
}
ComponentV "1" o- - "1" GeodataV

Class AppState{
+AppState(credentials:SessionCredentials,username:string)
+Credentials:SessionCredentials
+Username:string
}


Class SessionCredentials{
+SessionCredentials(role:string,sessionkey:string,firmid:int)
+Role:string
+SessionKey:string
+FirmID:int
}
AppState "1" o- - "1" SessionCredentials

class FirmUser{
+FirmUser(username:string,password:string)
+Password:string
+Username:string
}

'CanvasModles'
class Square{
+Addpoint(newPoint:Point):bool
+GetPoints:Point[]
+Square()
}

enum DrawTool{
    LINE
    SQUARE
    POLYGON
}

'Managers'

Interface ISessionManager{
+GetStringValue(key:string):string
+GetKey(key:string):int
+SetMall(key:int,value:string):void
+Onchange Action:event
}

'Utils'
Class DataHelper{
+ToSha256(input:string):string
}

class RestCaller
{
+RestCaller()
+GetMalls(cvrnr:int):Task<List<Mall>>
+GetMap(mallid:int):Task<List<Map>>
-CreateaRequestMessage(uri:Uri,method:HttpMethod):HttpRequestMessage
+InsertMap(map:MapV):Task<string>
+GetLoginCredentiels(username:string,password:string):Task<SessionCredentials>
-apikey:string
-baseUri:string
-client:HttpClient
}

@enduml

@startuml Website class diagram
top to bottom direction
skinparam linetype ortho

Class Mall{
+Mall(id:int,location:string)
+Id:int
+Location:string
}

Class Map{
+Map(layer:int,components:Dictonary<string,object>)
+Layer:int
+components:Dictonary<string,object>
}

Class MapV{
+MapV(mallid:int,layer:int,components:IEnumable<ComponentV>)
+MallID:int
+Layer:int
+Components:IEnumable<ComponentV>
}

Class ComponentV{
+ComponentV(description:string,zindex:int,geodata:GeodataV)
+Description:string
+ZIndex:int
+Geodata:GeodataV
}
MapV "1" o- - "0..*" ComponentV


Class GeodataV{
+GeodataV(type:string,xInput:int[],yInput:int[],srid:int)
+Type:string
+XInput:int[]
+YInput:int[]
+Srid:string
}
ComponentV "1" o- - "1" GeodataV

Class AppState{
+AppState(credentials:SessionCredentials,username:string)
+Credentials:SessionCredentials
+Username:string
}


Class SessionCredentials{
+SessionCredentials(role:string,sessionkey:string,firmid:int)
+Role:string
+SessionKey:string
+FirmID:int
}
AppState "1" o- - "1" SessionCredentials

class FirmUser{
+FirmUser(username:string,password:string)
+Password:string
+Username:string
}

class Square{
+Addpoint(newPoint:Point):bool
+GetPoints:Point[]
+Square()
}

enum DrawTool{
    LINE
    SQUARE
    POLYGON
}


Interface ISessionManager{
+GetStringValue(key:string):string
+GetKey(key:string):int
+SetMall(key:int,value:string):void
+Onchange Action:event
}

Class DataHelper{
+ToSha256(input:string):string
}

class RestCaller
{
+RestCaller()
+GetMalls(cvrnr:int):Task<List<Mall>>
+GetMap(mallid:int):Task<List<Map>>
-CreateaRequestMessage(uri:Uri,method:HttpMethod):HttpRequestMessage
+InsertMap(map:MapV):Task<string>
+GetLoginCredentiels(username:string,password:string):Task<SessionCredentials>
-apikey:string
-baseUri:string
-client:HttpClient
}

@enduml

PlantUML version 1.2022.7(Mon Aug 22 19:01:30 CEST 2022)
(GPL source distribution)
Java Runtime: OpenJDK Runtime Environment
JVM: OpenJDK 64-Bit Server VM
Default Encoding: Cp1252
Language: da
Country: DK
--></g></svg>